<?xml version="1.0" encoding="utf-8"?>
<!-- Generator: Adobe Illustrator 16.0.0, SVG Export Plug-In . SVG Version: 6.00 Build 0)  -->
<!DOCTYPE svg PUBLIC "-//W3C//DTD SVG 1.1//EN" "http://www.w3.org/Graphics/SVG/1.1/DTD/svg11.dtd">
<svg version="1.1" id="Layer_1" xmlns="http://www.w3.org/2000/svg" xmlns:xlink="http://www.w3.org/1999/xlink" x="0px" y="0px"
	 width="350px" height="200px" viewBox="0 0 350 200" enable-background="new 0 0 350 200" xml:space="preserve">
<g>
	<g>
		<path d="M7.617,180.661c-0.04,0.518-0.04,0.873-0.04,1.193c0,2.383,1.471,4.014,4.531,4.014c2.266,0,3.379-1.511,4.214-2.821
			h5.645c-1.79,4.61-4.73,7.075-10.654,7.075c-5.485,0-9.142-3.141-9.142-8.984c0-6.559,4.333-12.681,11.329-12.681
			c5.724,0,9.579,3.022,9.579,8.984c0,1.113-0.119,2.225-0.317,3.22H7.617z M17.635,177.083c0-2.106-0.518-4.372-3.816-4.372
			c-3.18,0-4.77,2.065-5.604,4.372H17.635z"/>
		<path d="M28.801,172.79h-3.339l0.795-3.775h3.379c1.113-5.248,2.067-8.071,7.99-8.071c1.232,0,2.464,0.12,3.696,0.32l-0.874,4.054
			c-0.597-0.04-1.232-0.119-1.829-0.119c-2.782,0-2.743,1.431-3.339,3.816h4.015L38.5,172.79h-4.055l-3.537,16.774h-5.645
			L28.801,172.79z"/>
		<path d="M42.79,172.79h-3.339l0.795-3.775h3.379c1.113-5.248,2.066-8.071,7.99-8.071c1.232,0,2.464,0.12,3.696,0.32l-0.875,4.054
			c-0.596-0.04-1.232-0.119-1.829-0.119c-2.782,0-2.742,1.431-3.339,3.816h4.015l-0.795,3.775h-4.054l-3.538,16.774h-5.645
			L42.79,172.79z M56.504,169.015h5.645l-4.373,20.55h-5.645L56.504,169.015z M62.785,165.835H57.14l1.034-4.651h5.645
			L62.785,165.835z"/>
		<path d="M78.443,176.128c0-2.424-1.312-3.417-3.777-3.417c-4.292,0-5.764,5.166-5.764,8.705c0,2.464,1.034,4.452,3.896,4.452
			c2.503,0,3.935-1.789,4.571-3.816h5.644c-1.708,5.127-5.286,8.07-10.612,8.07c-5.725,0-9.144-2.823-9.144-8.826
			c0-6.995,4.214-12.839,11.608-12.839c5.008,0,9.103,2.227,9.222,7.671H78.443z"/>
		<path d="M88.855,169.015h5.683l-4.372,20.55h-5.684L88.855,169.015z M95.174,165.835H89.49l1.034-4.651h5.685L95.174,165.835z"/>
		<path d="M101.095,180.661c-0.04,0.518-0.04,0.873-0.04,1.193c0,2.383,1.471,4.014,4.531,4.014c2.267,0,3.38-1.511,4.214-2.821
			h5.645c-1.789,4.61-4.73,7.075-10.654,7.075c-5.485,0-9.142-3.141-9.142-8.984c0-6.559,4.333-12.681,11.329-12.681
			c5.724,0,9.581,3.022,9.581,8.984c0,1.113-0.12,2.225-0.318,3.22H101.095z M111.113,177.083c0-2.106-0.518-4.372-3.818-4.372
			c-3.18,0-4.77,2.065-5.604,4.372H111.113z"/>
		<path d="M121.88,169.015h5.406l-0.635,2.859h0.08c1.829-2.264,4.253-3.417,7.195-3.417c3.895,0,6.002,1.947,6.002,5.525
			c0,0.835-0.437,2.823-0.596,3.538l-2.544,12.044h-5.645l2.504-12.044c0.159-0.597,0.358-1.946,0.358-2.504
			c0-1.231-1.392-2.106-2.704-2.106c-3.418,0-5.167,2.86-5.763,5.724l-2.306,10.931h-5.643L121.88,169.015z"/>
		<path d="M153.399,169.015h4.055l-0.875,3.775h-4.014l-2.108,10.216c-0.078,0.436-0.158,0.794-0.158,0.955
			c0,1.47,1.074,1.508,1.908,1.508c0.675,0,1.352-0.038,2.028-0.118l-0.955,4.373c-1.153,0.12-2.345,0.199-3.538,0.199
			c-2.624,0-5.446-0.835-5.366-4.173c0-0.519,0.119-1.233,0.277-1.95l2.307-11.01h-3.697l0.875-3.775h3.617l1.271-6.241h5.645
			L153.399,169.015z"/>
		<path d="M178.438,189.564h-6.438l-2.704-20.55h5.803l1.272,14.627h0.078l7.275-14.627h5.962L178.438,189.564z"/>
		<path d="M194.572,180.661c-0.039,0.518-0.039,0.873-0.039,1.193c0,2.383,1.471,4.014,4.531,4.014c2.268,0,3.379-1.511,4.215-2.821
			h5.645c-1.789,4.61-4.73,7.075-10.654,7.075c-5.484,0-9.143-3.141-9.143-8.984c0-6.559,4.333-12.681,11.33-12.681
			c5.724,0,9.58,3.022,9.58,8.984c0,1.113-0.12,2.225-0.319,3.22H194.572z M204.591,177.083c0-2.106-0.518-4.372-3.816-4.372
			c-3.181,0-4.771,2.065-5.604,4.372H204.591z"/>
		<path d="M217.108,161.184h5.645l-6.043,28.381h-5.645L217.108,161.184z"/>
		<path d="M234.039,168.457c5.645,0,9.58,2.784,9.58,8.705c0,7.236-4.491,12.96-11.965,12.96c-5.725,0-9.421-2.981-9.421-8.864
			C222.233,174.301,226.725,168.457,234.039,168.457z M231.933,185.868c4.213,0,6.041-5.168,6.041-8.626
			c0-2.742-1.192-4.531-4.133-4.531c-4.133,0-5.962,5.089-5.962,8.547C227.879,183.682,229.27,185.868,231.933,185.868z"/>
		<path d="M267.504,169.015h4.055l-0.874,3.775h-4.016l-2.107,10.216c-0.078,0.436-0.159,0.794-0.159,0.955
			c0,1.47,1.074,1.508,1.908,1.508c0.676,0,1.352-0.038,2.027-0.118l-0.953,4.373c-1.153,0.12-2.345,0.199-3.538,0.199
			c-2.624,0-5.446-0.835-5.365-4.173c0-0.519,0.118-1.233,0.277-1.95l2.306-11.01h-3.696l0.873-3.775h3.618l1.272-6.241h5.645
			L267.504,169.015z"/>
		<path d="M283.361,168.457c5.645,0,9.58,2.784,9.58,8.705c0,7.236-4.491,12.96-11.964,12.96c-5.725,0-9.422-2.981-9.422-8.864
			C271.556,174.301,276.047,168.457,283.361,168.457z M281.256,185.868c4.211,0,6.041-5.168,6.041-8.626
			c0-2.742-1.192-4.531-4.135-4.531c-4.133,0-5.962,5.089-5.962,8.547C277.2,183.682,278.59,185.868,281.256,185.868z"/>
		<path d="M306.93,168.457c5.645,0,9.58,2.784,9.58,8.705c0,7.236-4.493,12.96-11.965,12.96c-5.724,0-9.423-2.981-9.423-8.864
			C295.122,174.301,299.615,168.457,306.93,168.457z M304.822,185.868c4.213,0,6.043-5.168,6.043-8.626
			c0-2.742-1.194-4.531-4.135-4.531c-4.133,0-5.963,5.089-5.963,8.547C300.768,183.682,302.159,185.868,304.822,185.868z"/>
		<path d="M323.858,161.184h5.646l-6.041,28.381h-5.646L323.858,161.184z"/>
		<path d="M342.579,175.017c-0.039-1.75-1.032-2.784-3.18-2.784c-1.987,0-3.458,0.558-3.458,2.029c0,0.914,0.675,1.47,2.583,2.066
			l2.823,0.914c3.021,0.993,5.406,2.424,5.406,5.882c0,5.089-5.05,6.998-9.779,6.998c-4.016,0-8.745-1.592-8.745-6.401v-0.835h5.246
			v0.676c0,1.869,2.108,2.783,4.056,2.783c1.709,0,3.578-0.595,3.578-2.465c0-1.432-0.795-1.869-2.027-2.264l-4.334-1.393
			c-2.821-0.914-4.451-2.027-4.451-5.247c0-4.849,5.128-6.52,9.103-6.52c4.492,0,8.507,1.271,8.428,6.56H342.579z"/>
	</g>
	<g>
		<path fill="#AD2525" d="M94.201,32.963h44.247V9.878H94.201c-38.812,0-71.076,23.248-77.65,53.866H9.555V86.83h6.996
			c6.575,30.619,38.838,53.866,77.65,53.866h44.247v-23.084H94.201c-25.534,0-47.047-13.021-53.672-30.782h95.995V63.745H40.529
			C47.154,45.983,68.667,32.963,94.201,32.963z"/>
		<polygon fill="#AD2525" points="140.372,9.878 163.457,9.878 163.457,100.296 225.018,34.888 259.646,34.888 159.61,140.695 
			140.372,140.695 		"/>
		<polygon fill="#AD2525" points="225.018,9.878 225.018,32.963 263.494,32.963 263.494,140.695 286.579,140.695 286.579,32.963 
			340.445,32.963 340.445,9.878 		"/>
	</g>
</g>
</svg>
